<?xml version="1.0" standalone="no"?>
<!DOCTYPE svg PUBLIC "-//W3C//DTD SVG 20010904//EN"
 "http://www.w3.org/TR/2001/REC-SVG-20010904/DTD/svg10.dtd">
<svg version="1.0" xmlns="http://www.w3.org/2000/svg"
 width="700.000000pt" height="700.000000pt" viewBox="0 0 700.000000 700.000000"
 preserveAspectRatio="xMidYMid meet">
<metadata>
Created by potrace 1.14, written by Peter Selinger 2001-2017
</metadata>
<g transform="translate(0.000000,700.000000) scale(0.100000,-0.100000)"
fill="#000000" stroke="none">
<path d="M4423 6980 c-21 -13 -35 -32 -42 -57 -9 -30 -81 -528 -81 -556 0 -4
-45 -29 -99 -57 -55 -27 -135 -74 -180 -104 l-80 -55 -275 110 c-295 118 -312
122 -354 76 -11 -12 -117 -191 -236 -396 -229 -397 -238 -419 -198 -467 9 -12
116 -98 237 -191 l220 -170 -1 -211 -1 -211 -219 -172 c-121 -95 -227 -181
-236 -193 -40 -48 -31 -70 198 -466 119 -206 223 -383 231 -392 9 -10 30 -22
49 -28 31 -10 50 -4 256 79 123 49 247 99 275 112 l53 21 87 -59 c49 -33 130
-81 181 -107 50 -25 92 -49 92 -53 0 -27 72 -526 81 -556 7 -26 21 -44 42 -57
30 -19 54 -20 477 -20 423 0 447 1 477 20 21 13 35 32 43 57 8 31 80 525 80
554 0 5 39 29 88 53 48 24 129 72 181 106 l94 61 261 -106 c143 -59 276 -107
293 -108 65 -2 55 -16 434 642 91 159 102 192 76 238 -7 12 -113 102 -237 199
-195 154 -225 181 -223 203 5 74 3 325 -2 354 l-7 34 228 177 c126 97 234 187
241 199 17 31 16 72 -3 110 -49 93 -419 725 -436 744 -42 45 -59 42 -352 -76
l-275 -111 -82 55 c-44 31 -125 78 -180 105 -54 28 -99 54 -99 59 0 29 -72
523 -80 554 -8 25 -22 44 -43 57 -30 19 -54 20 -477 20 -423 0 -447 -1 -477
-20z m661 -1370 c128 -33 228 -91 331 -195 150 -149 216 -306 216 -515 0 -209
-66 -367 -215 -515 -151 -151 -306 -215 -516 -215 -211 0 -365 64 -516 215
-78 77 -98 105 -137 185 -59 121 -77 198 -77 330 0 132 18 209 77 330 39 80
59 108 137 185 103 103 203 162 328 195 102 26 269 27 372 0z"/>
<path d="M1250 3844 c-19 -3 -79 -14 -134 -25 -550 -114 -962 -528 -1088
-1090 -32 -146 -32 -406 0 -556 59 -274 173 -490 361 -685 208 -217 439 -346
734 -410 146 -31 408 -31 554 0 295 64 526 193 734 410 188 195 302 411 361
685 31 146 31 408 0 554 -64 295 -193 526 -410 734 -194 187 -413 303 -680
359 -94 20 -347 34 -432 24z"/>
<path d="M4587 1740 c-406 -69 -711 -407 -734 -815 -23 -416 250 -791 652
-896 300 -78 616 9 836 230 134 135 212 286 245 473 82 469 -238 920 -713
1003 -91 16 -207 18 -286 5z"/>
</g>
</svg>
